name analog
datacolumns 19
datarows 34
range 0.158 0.17450000000000002
endheader
time	ground_force_vx	ground_force_vy	ground_force_vz	ground_force_px	ground_force_py	ground_force_pz	l_ground_force_vx	l_ground_force_vy	l_ground_force_vz	l_ground_force_px	l_ground_force_py	l_ground_force_pz	ground_torque_x	ground_torque_y	ground_torque_z	l_ground_torque_x	l_ground_torque_y	l_ground_torque_z
0.158	-0.0	-0.0	-0.0	-0.0	-0.0	-0.0	-7.012651443481445	-3.4026248455047607	-735.68017578125	-0.0	-0.0	-0.0	-0.0	-0.0	-0.0	209586.28125	12860.232421875	-2717.8544921875
0.1585	-0.0	-0.0	-0.0	-0.0	-0.0	-0.0	-6.81937313079834	-2.9507036209106445	-737.160400390625	-0.0	-0.0	-0.0	-0.0	-0.0	-0.0	209834.109375	12928.7978515625	-2907.28466796875
0.159	-0.0	-0.0	-0.0	-0.0	-0.0	-0.0	-6.842555046081543	-2.689128398895264	-738.0972900390625	-0.0	-0.0	-0.0	-0.0	-0.0	-0.0	210006.984375	13187.123046875	-2882.180908203125
0.1595	-0.0	-0.0	-0.0	-0.0	-0.0	-0.0	-6.865783214569092	-2.661283493041992	-736.896728515625	-0.0	-0.0	-0.0	-0.0	-0.0	-0.0	210230.75	13360.12109375	-2945.150146484375
0.16	-0.0	-0.0	-0.0	-0.0	-0.0	-0.0	-7.3161702156066895	-2.598114013671875	-736.3607177734375	-0.0	-0.0	-0.0	-0.0	-0.0	-0.0	210330.5	13456.1943359375	-3150.25146484375
0.1605	-0.0	-0.0	-0.0	-0.0	-0.0	-0.0	-7.1973066329956055	-2.823826789855957	-735.1199951171875	-0.0	-0.0	-0.0	-0.0	-0.0	-0.0	209758.125	13359.9248046875	-3225.744140625
0.161	-0.0	-0.0	-0.0	-0.0	-0.0	-0.0	-7.342105865478516	-2.498873233795166	-732.58154296875	-0.0	-0.0	-0.0	-0.0	-0.0	-0.0	209228.71875	13335.8857421875	-3281.136474609375
0.1615	-0.0	-0.0	-0.0	-0.0	-0.0	-0.0	-7.393168449401855	-1.8976013660430908	-730.7525024414062	-0.0	-0.0	-0.0	-0.0	-0.0	-0.0	208684.625	13384.017578125	-3435.78955078125
0.162	-0.0	-0.0	-0.0	-0.0	-0.0	-0.0	-7.551332950592041	-1.418581247329712	-729.7053833007812	-0.0	-0.0	-0.0	-0.0	-0.0	-0.0	208582.421875	13260.1650390625	-3520.0068359375
0.1625	-0.0	-0.0	-0.0	-0.0	-0.0	-0.0	-7.333179473876953	-1.3082512617111206	-730.9758911132812	-0.0	-0.0	-0.0	-0.0	-0.0	-0.0	208717.984375	13169.3515625	-3555.0341796875
0.163	-0.0	-0.0	-0.0	-0.0	-0.0	-0.0	-6.869375228881836	-0.2592798471450805	-732.438720703125	-0.0	-0.0	-0.0	-0.0	-0.0	-0.0	209506.15625	13040.357421875	-3482.58154296875
0.1635	-0.0	-0.0	-0.0	-0.0	-0.0	-0.0	-6.072469711303711	0.3443829715251922	-733.1307373046875	-0.0	-0.0	-0.0	-0.0	-0.0	-0.0	209859.328125	12557.25	-3287.04345703125
0.164	-0.0	-0.0	-0.0	-0.0	-0.0	-0.0	-5.405419826507568	0.8654805421829224	-733.4046020507812	-0.0	-0.0	-0.0	-0.0	-0.0	-0.0	210144.203125	12309.1044921875	-3059.0205078125
0.1645	-0.0	-0.0	-0.0	-0.0	-0.0	-0.0	-4.642122268676758	1.4718334674835205	-734.8422241210938	-0.0	-0.0	-0.0	-0.0	-0.0	-0.0	210439.546875	12215.0673828125	-2949.52587890625
0.165	-0.0	-0.0	-0.0	-0.0	-0.0	-0.0	-4.884269237518311	1.957422971725464	-734.97607421875	-0.0	-0.0	-0.0	-0.0	-0.0	-0.0	210518.65625	12163.8203125	-2894.166259765625
0.1655	-0.0	-0.0	-0.0	-0.0	-0.0	-0.0	-5.313997745513916	2.334240436553955	-735.213623046875	-0.0	-0.0	-0.0	-0.0	-0.0	-0.0	210673.15625	12250.365234375	-2990.00244140625
0.166	-0.0	-0.0	-0.0	-0.0	-0.0	-0.0	-5.199265480041504	2.412776470184326	-735.6624755859375	-0.0	-0.0	-0.0	-0.0	-0.0	-0.0	210786.453125	12317.013671875	-2939.82470703125
0.1665	-0.0	-0.0	-0.0	-0.0	-0.0	-0.0	-5.032679557800293	2.6308224201202397	-734.777099609375	-0.0	-0.0	-0.0	-0.0	-0.0	-0.0	210579.34375	12290.1298828125	-2837.13330078125
0.167	-0.0	-0.0	-0.0	-0.0	-0.0	-0.0	-5.189624309539795	2.731264114379883	-735.0708618164062	-0.0	-0.0	-0.0	-0.0	-0.0	-0.0	210402.8125	12554.677734375	-2843.85400390625
0.1675	-0.0	-0.0	-0.0	-0.0	-0.0	-0.0	-5.73030424118042	2.2862548828125	-735.99169921875	-0.0	-0.0	-0.0	-0.0	-0.0	-0.0	210519.484375	12727.326171875	-3042.38525390625
0.168	-0.0	-0.0	-0.0	-0.0	-0.0	-0.0	-6.564598083496094	2.0789694786071777	-737.005126953125	-0.0	-0.0	-0.0	-0.0	-0.0	-0.0	210973.46875	12975.6201171875	-3212.43798828125
0.1685	-0.0	-0.0	-0.0	-0.0	-0.0	-0.0	-7.279517650604248	1.9668501615524288	-738.2684326171875	-0.0	-0.0	-0.0	-0.0	-0.0	-0.0	211165.796875	13158.9228515625	-3370.2998046875
0.169	-0.0	-0.0	-0.0	-0.0	-0.0	-0.0	-7.806549072265625	1.6674962043762207	-738.469482421875	-0.0	-0.0	-0.0	-0.0	-0.0	-0.0	210905.625	13319.3603515625	-3506.67724609375
0.1695	-0.0	-0.0	-0.0	-0.0	-0.0	-0.0	-8.471879959106445	1.287210464477539	-736.292236328125	-0.0	-0.0	-0.0	-0.0	-0.0	-0.0	210660.0	13543.7998046875	-3644.53564453125
0.17	-0.0	-0.0	-0.0	-0.0	-0.0	-0.0	-9.022567749023438	0.9568649530410768	-735.473388671875	-0.0	-0.0	-0.0	-0.0	-0.0	-0.0	210608.25	13864.91796875	-3709.25048828125
0.1705	-0.0	-0.0	-0.0	-0.0	-0.0	-0.0	-9.415332794189451	0.5980592966079712	-736.6741333007812	-0.0	-0.0	-0.0	-0.0	-0.0	-0.0	210547.796875	13910.7880859375	-3807.81884765625
0.171	-0.0	-0.0	-0.0	-0.0	-0.0	-0.0	-9.63778018951416	0.6977682709693909	-736.3907470703125	-0.0	-0.0	-0.0	-0.0	-0.0	-0.0	210287.703125	14152.2978515625	-3836.3037109375
0.1715	-0.0	-0.0	-0.0	-0.0	-0.0	-0.0	-9.411569595336914	0.9013546109199524	-737.0802001953125	-0.0	-0.0	-0.0	-0.0	-0.0	-0.0	210309.515625	14180.7685546875	-3846.02734375
0.17200000000000001	-0.0	-0.0	-0.0	-0.0	-0.0	-0.0	-9.403343200683594	1.1325535774230957	-737.408203125	-0.0	-0.0	-0.0	-0.0	-0.0	-0.0	210510.859375	14088.9013671875	-3771.108642578125
0.17250000000000001	-0.0	-0.0	-0.0	-0.0	-0.0	-0.0	-9.00999927520752	1.5355877876281738	-738.9317626953125	-0.0	-0.0	-0.0	-0.0	-0.0	-0.0	210891.3125	13950.890625	-3643.863525390625
0.17300000000000001	-0.0	-0.0	-0.0	-0.0	-0.0	-0.0	-8.201704025268555	1.6499139070510864	-738.9955444335938	-0.0	-0.0	-0.0	-0.0	-0.0	-0.0	211116.0625	13732.5302734375	-3345.34375
0.17350000000000002	-0.0	-0.0	-0.0	-0.0	-0.0	-0.0	-7.51413106918335	1.6679030656814575	-739.701904296875	-0.0	-0.0	-0.0	-0.0	-0.0	-0.0	211099.203125	13559.529296875	-3224.831298828125
0.17400000000000002	-0.0	-0.0	-0.0	-0.0	-0.0	-0.0	-6.636577129364014	1.4764809608459473	-738.4227905273438	-0.0	-0.0	-0.0	-0.0	-0.0	-0.0	211086.8125	13152.99609375	-3019.441162109375
0.17450000000000002	-0.0	-0.0	-0.0	-0.0	-0.0	-0.0	-6.534023284912109	1.6018457412719729	-740.0186767578125	-0.0	-0.0	-0.0	-0.0	-0.0	-0.0	211018.703125	12661.943359375	-2980.542236328125
